<svg width="24" height="21" viewBox="0 0 24 21" fill="none" xmlns="http://www.w3.org/2000/svg">
<path fill-rule="evenodd" clip-rule="evenodd" d="M13.1047 4.77002C13.4987 4.54059 13.8076 4.18371 13.9832 3.75508C14.1588 3.32645 14.1913 2.85019 14.0755 2.40063C13.9597 1.95107 13.7022 1.55352 13.3432 1.27002C12.9841 0.986518 12.5438 0.833025 12.0908 0.833497C11.6379 0.833969 11.1978 0.98838 10.8394 1.27263C10.4809 1.55688 10.2242 1.95497 10.1093 2.40476C9.99438 2.85456 10.0278 3.33075 10.2042 3.75902C10.3807 4.18728 10.6903 4.54352 11.0847 4.77213L11.0745 4.79107C10.4029 6.23005 9.46982 8.29114 8.02919 9.06484C6.84594 9.69959 5.14795 9.38064 3.88676 9.14274C3.86653 8.84832 3.76633 8.56562 3.59752 8.32671C3.42871 8.0878 3.19805 7.90225 2.93172 7.79111C2.66539 7.67996 2.37405 7.64768 2.09075 7.69792C1.80746 7.74815 1.54355 7.8789 1.32896 8.07533C1.11438 8.27175 0.957725 8.52599 0.876763 8.80919C0.7958 9.09239 0.793775 9.39322 0.870918 9.67754C0.948061 9.96186 1.10128 10.2183 1.3132 10.4177C1.52512 10.6172 1.78724 10.7517 2.06984 10.8059L5.09258 18.8166C5.31675 19.4105 5.71059 19.9209 6.22241 20.2808C6.73423 20.6408 7.3401 20.8334 7.9605 20.8335H16.2249C16.8452 20.8334 17.4511 20.6408 17.9629 20.2808C18.4748 19.9209 18.8686 19.4105 19.0928 18.8166L22.1145 10.8059C22.3953 10.7523 22.656 10.6194 22.8674 10.4222C23.0788 10.225 23.2325 9.97124 23.3114 9.68939C23.3902 9.40754 23.391 9.10872 23.3137 8.82642C23.2365 8.54411 23.0841 8.28948 22.8738 8.09105C22.6635 7.89262 22.4036 7.75823 22.123 7.70294C21.8425 7.64766 21.5526 7.67366 21.2856 7.77803C21.0187 7.88241 20.7854 8.06103 20.6117 8.29389C20.4381 8.52675 20.3311 8.80464 20.3027 9.09642C19.0118 9.268 17.3476 9.48696 16.1562 8.848C14.7442 8.09009 13.7978 6.1711 13.1047 4.77002ZM12.1183 7.26165C12.9058 8.57325 13.8501 9.98486 15.2067 10.7143C16.5673 11.4438 18.2417 11.407 19.7387 11.2754L17.1805 18.0555C17.1058 18.2535 16.9746 18.4237 16.8041 18.5437C16.6335 18.6638 16.4316 18.7281 16.2249 18.7282H7.9605C7.75372 18.7281 7.55181 18.6638 7.38126 18.5437C7.21072 18.4237 7.07951 18.2535 7.00487 18.0555L4.48147 11.368C5.95695 11.5617 7.62623 11.6565 8.97867 10.9301C10.3916 10.1722 11.337 8.64378 12.1183 7.26165Z" fill="#1877F2"/>
</svg>
