<svg width="22" height="22" viewBox="0 0 22 22" fill="none" xmlns="http://www.w3.org/2000/svg">
<path d="M11.0022 21C16.525 21 21.0022 16.5228 21.0022 11C21.0022 5.47715 16.525 1 11.0022 1C5.47935 1 1.0022 5.47715 1.0022 11C1.0022 16.5228 5.47935 21 11.0022 21Z" stroke="white" stroke-width="1.7" stroke-linecap="round" stroke-linejoin="round"/>
<path d="M18.5022 17.2502C17.6747 14.4077 14.5022 13.469 11.0022 13.469C7.59345 13.469 4.4147 14.5552 3.5022 17.2502" stroke="white" stroke-width="1.7" stroke-linecap="round" stroke-linejoin="round"/>
<path fill-rule="evenodd" clip-rule="evenodd" d="M11.0022 3.5C11.9968 3.5 12.9506 3.89509 13.6538 4.59835C14.3571 5.30161 14.7522 6.25544 14.7522 7.25V9.75C14.7522 10.7446 14.3571 11.6984 13.6538 12.4017C12.9506 13.1049 11.9968 13.5 11.0022 13.5C10.0076 13.5 9.05381 13.1049 8.35055 12.4017C7.64729 11.6984 7.2522 10.7446 7.2522 9.75V7.25C7.2522 6.25544 7.64729 5.30161 8.35055 4.59835C9.05381 3.89509 10.0076 3.5 11.0022 3.5Z" stroke="white" stroke-width="1.7" stroke-linecap="round" stroke-linejoin="round"/>
</svg>
